<svg height="411" width="397" preserveAspectRatio="xMinYMin" xmlns="http://www.w3.org/2000/svg"><path d="m27 304 35-60a4 8 0 0 0 0-8l-23-75h-6a11 16 0 0 1-11-16v-30a5 5 0 0 1-5-5V94a5 5 0 0 1 5-5 16 32 0 0 1 1-51 18 16 0 0 0 8 13A19 34 0 0 1 50 4C35 24 90 34 69 89a5 5 0 0 1 5 5v16a5 5 0 0 1-5 5v34l50 74 54 20c-42-122 126-115 71 9l49 7 10 9 18 57 13-23 63 32-26 47a60 30 0 0 1 0 30H108v-14l-29-10-25-41 5-10"fill="#C4C7D0" fill-rule="evenodd"/><path fill="#C4C7D0" d="m119 205 49 9v-14zm5-54 46 39 7-18zm41-37 17 52 16-8zm47-12-12 56h22zm47 12-35 44 16 8zm41 37-55 21 7 18zm5 54-51 9v-14z"/></svg>