<svg viewbox="1 1 2000 2000" preserveAspectRatio="xMinYMin">
  <path d="m 32 35 l 154 0 l 0 19 l 188 0 l 16 -40 l 53 13 l 3 -25 l 169 0 l 0 16 l 55 9 l 10 12 l 30 169 l 203 26 l 112 173 l -22 21 l -46 -2 l -14 -14 a106 175 0 0 1 -106 175
  l -652 0 a79 102 0 0 1 -79 -102 l 8 -96 l -51 44 l -9 7 l -53 -7 l 0 -12 l 136 -186 l 221 -14 l 13 -79 l -185 0 l 0 15 l -154 0 m 141 259 a 77 77 0 0 1 77 -77 l 546 0
  a 77 77 0 0 1 77 77 l 0 52 a 77 77 0 0 1 -77 77 l -546 0 a 77 77 0 0 1 -77 -77 m 116 -122 a 95 95 0 0 1 95 95 a 95 95 0 0 1 -95 95 a 95 95 0 0 1 -95 -95 a 95 95 0 0 1 95 -95
  m 228 0 a 95 95 0 0 1 95 95 a 95 95 0 0 1 -95 95 a 95 95 0 0 1 -95 -95 a 95 95 0 0 1 95 -95 m 228 0 a 95 95 0 0 1 95 95 a 95 95 0 0 1 -95 95 a 95 95 0 0 1 -95 -95
  a 95 95 0 0 1 95 -95" fill="#62635E" fill-rule="evenodd"></path>
</svg>