<svg height="587" width="1025" preserveAspectRatio="xMinYMin" xmlns="http://www.w3.org/2000/svg"><path d="M32 35h154v19h188l16-40 53 13 3-25h169v16l55 9 10 12 30 169 203 26 112 173-22 21-46-2-14-14a106 175 0 0 1-106 175H185a79 102 0 0 1-79-102l8-96-51 44-9 7-53-7v-12l136-186 221-14 13-79H186v15H32m141 259a77 77 0 0 1 77-77h546a77 77 0 0 1 77 77v52a77 77 0 0 1-77 77H250a77 77 0 0 1-77-77m116-122a95 95 0 0 1 95 95 95 95 0 0 1-95 95 95 95 0 0 1-95-95 95 95 0 0 1 95-95m228 0a95 95 0 0 1 95 95 95 95 0 0 1-95 95 95 95 0 0 1-95-95 95 95 0 0 1 95-95m228 0a95 95 0 0 1 95 95 95 95 0 0 1-95 95 95 95 0 0 1-95-95 95 95 0 0 1 95-95" fill="#62635E" fill-rule="evenodd"/></svg>